<svg width="412" height="220" viewBox="0 0 412 220" fill="none" xmlns="http://www.w3.org/2000/svg">
<g style="mix-blend-mode:hard-light" filter="url(#filter0_d_1_2)">
<path d="M101.398 59L31 211H5L101.398 2L196.77 211H171.133L101.398 59Z" fill="#22272E"/>
<path d="M210.102 2V211H234.714V86L309.577 211L385.464 86V211H407V108V7L309.577 156L210.102 2Z" fill="#22272E"/>
<path d="M101.398 59L31 211H5L101.398 2L196.77 211H171.133L101.398 59Z" stroke="#22272E"/>
<path d="M210.102 2V211H234.714V86L309.577 211L385.464 86V211H407V108V7L309.577 156L210.102 2Z" stroke="#22272E"/>
</g>
<defs>
<filter id="filter0_d_1_2" x="0.21875" y="0.304428" width="411.281" height="219.664" filterUnits="userSpaceOnUse" color-interpolation-filters="sRGB">
<feFlood flood-opacity="0" result="BackgroundImageFix"/>
<feColorMatrix in="SourceAlpha" type="matrix" values="0 0 0 0 0 0 0 0 0 0 0 0 0 0 0 0 0 0 127 0" result="hardAlpha"/>
<feOffset dy="4"/>
<feGaussianBlur stdDeviation="2"/>
<feComposite in2="hardAlpha" operator="out"/>
<feColorMatrix type="matrix" values="0 0 0 0 0 0 0 0 0 0 0 0 0 0 0 0 0 0 0.25 0"/>
<feBlend mode="normal" in2="BackgroundImageFix" result="effect1_dropShadow_1_2"/>
<feBlend mode="normal" in="SourceGraphic" in2="effect1_dropShadow_1_2" result="shape"/>
</filter>
</defs>
</svg>
